OpenSim_Sub02_CSBaseline_LCS.mot
version=1
nRows=45
nColumns=11
inDegrees=no
endheader
time	Bot_Shank	2nd_Bot_Shank	2nd_Top_Shank	Top_Shank	Bot_Thigh	Med_Thigh	Top_Thigh	BNOx	BNOy	BNOZ
35.38000000	9279.32147094	9851.30664145	11313.17915923	11235.88453955	12898.49896886	13660.85764724	13765.16738241	226.17260153	-54.67052380	118.54566572
35.39000000	9286.94972296	9851.46806831	11313.95459161	11236.21633383	12897.81338677	13662.72834800	13776.65684258	225.44066212	-55.07741790	118.91864304
35.40000000	9293.98587665	9851.25263379	11314.40253724	11236.51395635	12896.33660082	13665.02827120	13790.31507172	224.78555998	-55.45622212	119.35349033
35.41000000	9300.42506100	9851.01127263	11314.74812521	11236.80982893	12893.93718502	13667.51665923	13806.27056430	224.20039684	-55.80538120	119.87907958
35.42000000	9306.26287246	9851.09028698	11315.21358806	11237.13567316	12890.49005219	13669.95554604	13824.64515856	223.67814469	-56.12346447	120.52346070
35.43000000	9311.51307882	9851.65588681	11315.90855628	11237.49598801	12886.11653640	13672.21548749	13845.30193149	223.20673143	-56.41388439	121.28272667
35.44000000	9316.21305318	9852.64033600	11316.79638624	11237.85990933	12881.25808157	13674.30801323	13867.76782011	222.76753243	-56.68634479	122.11145720
35.45000000	9320.40174619	9853.96026341	11317.83065859	11238.19420959	12876.37752513	13676.25407445	13891.54729661	222.34148518	-56.95096997	122.96145762
35.46000000	9324.11810852	9855.53229792	11318.96495395	11238.46566126	12871.93770450	13678.07462232	13916.14483320	221.90952716	-57.21788426	123.78453326
35.47000000	9327.40109083	9857.27306838	11320.15285298	11238.64103681	12868.40145709	13679.79060801	13941.06490209	221.45259585	-57.49721195	124.53248944
35.48000000	9330.28964379	9859.09920366	11321.34793631	11238.68710871	12866.23162034	13681.42298271	13965.81197546	220.95162872	-57.79907735	125.15713150
35.49000000	9332.82271804	9860.92733262	11322.50378458	11238.57064944	12865.89103165	13682.99269758	13989.89052553	220.38756326	-58.13360476	125.61026475
35.50000000	9335.03926427	9862.67408413	11323.57397843	11238.25843146	12867.84252846	13684.52070380	14012.80502449	219.74133694	-58.51091850	125.84369452
35.51000000	9336.97823312	9864.25608705	11324.51209849	11237.71722725	12872.54894817	13686.02795256	14034.05994456	218.99388725	-58.94114287	125.80922613
35.52000000	9338.67857527	9865.58997026	11325.27172540	11236.91380928	12880.47312822	13687.53539502	14053.15975793	218.12615166	-59.43440218	125.45866492
35.53000000	9340.17924137	9866.59236260	11325.80643981	11235.81495003	12892.07790603	13689.06398236	14069.60893680	217.11906765	-60.00082072	124.74381621
35.54000000	9341.52112768	9867.18292500	11326.06745592	11234.39235294	12907.79926111	13690.63592403	14082.91609885	215.95410249	-60.65033429	123.62321962
35.55000000	9342.82076542	9867.39918938	11325.91399272	11232.80941392	12927.02907237	13692.32234479	14092.75101686	214.63331879	-61.38554947	122.31721028
35.56000000	9344.29293832	9867.43180628	11325.08576421	11231.47854406	12947.80289503	13694.25791212	14098.99280981	213.18553324	-62.19955200	121.38620502
35.57000000	9346.15899649	9867.48165940	11323.31449766	11230.82879658	12968.06563894	13696.58154017	14101.53458763	211.64135058	-63.08479131	121.41334885
35.58000000	9348.64029003	9867.74963245	11320.33192032	11231.28922469	12985.76221393	13699.43214307	14100.26946027	210.03137552	-64.03371686	122.98178681
35.59000000	9351.95816904	9868.43660914	11315.86975947	11233.28888161	12998.83752986	13702.94863499	14095.09053767	208.38621277	-65.03877807	126.67466393
35.60000000	9356.31171389	9869.72428846	11309.67431930	11237.22238136	13005.30168590	13707.24176737	14085.89069896	206.73582829	-66.09241675	133.03048071
35.61000000	9361.38780117	9871.35312114	11301.82717326	11242.69223667	13004.66413613	13711.77454973	14072.55751516	205.09549599	-67.18689902	141.56091323
35.62000000	9366.36110365	9872.62230965	11292.74516406	11248.50885895	12997.93368948	13715.36224965	14054.97324914	203.46579778	-68.31431529	150.75081318
35.63000000	9370.38402437	9872.81187173	11282.85971136	11253.44822042	12986.18434426	13716.79197201	14033.01993298	201.84667676	-69.46674838	159.04038771
35.64000000	9372.60896637	9871.20182513	11272.60223480	11256.28629332	12970.49009874	13714.85082169	14006.57959877	200.23807607	-70.63628105	164.86984395
35.65000000	9372.18833271	9867.07218761	11262.40415402	11255.79904988	12951.92495123	13708.32590358	13975.53427858	198.63993883	-71.81499611	166.67938906
35.66000000	9368.27452643	9859.70297692	11252.69688866	11250.76246232	12931.56290001	13696.00432256	13939.76600449	197.05220815	-72.99497634	162.90923018
35.67000000	9360.01995057	9848.37421080	11243.91185836	11239.95250286	12910.47794338	13676.67318351	13899.15680860	195.47482714	-74.16830454	151.99957445
35.68000000	9346.62016719	9832.40535052	11236.46862441	11222.21549362	12889.72372395	13649.18766709	13853.60362747	193.90718516	-75.32661530	132.46771470
35.69000000	9328.26339565	9812.02305812	11230.51400586	11198.01580384	12869.88570390	13613.96869686	13803.34620109	192.33593443	-76.45123481	104.60391430
35.70000000	9306.13051259	9788.36119642	11225.92207951	11169.43584988	12851.08116493	13573.00293923	13748.96707282	190.73499010	-77.51318085	70.47140722
35.71000000	9281.44555370	9762.59307176	11222.55506380	11138.62839801	12833.40703311	13528.34513640	13691.06369054	189.07771354	-78.48302300	32.21051306
35.72000000	9255.43255464	9735.89199048	11220.27517717	11107.74621447	12816.96023447	13482.05003058	13630.23350212	187.33746610	-79.33133083	-8.03844855
35.73000000	9229.31555108	9709.43125889	11218.94463808	11078.94206552	12801.83769506	13436.17236397	13567.07395542	185.48760914	-80.02867395	-48.13515800
35.74000000	9204.31857868	9684.38418335	11218.42566495	11054.36871741	12788.13634092	13392.76687877	13502.18249832	183.50150403	-80.54562192	-85.93929565
35.75000000	9181.66567311	9661.92407017	11218.58047625	11036.17893639	12775.95309811	13353.88831719	13436.15657869	181.35251212	-80.85274434	-119.31054188
35.76000000	9162.58087005	9643.22422571	11219.27129041	11026.52548871	12765.38489267	13321.59142143	13369.59364440	179.01399477	-80.92061078	-146.10857708
35.77000000	9148.27879496	9629.44925696	11220.36059248	11027.54052510	12756.52742972	13297.91288843	13303.09304627	176.45973437	-80.72014367	-164.20955042
35.78000000	9139.24600243	9621.09070133	11221.73149521	11039.76116569	12749.38195021	13283.49324744	13237.40136780	173.69608784	-80.24956413	-172.76380735
35.79000000	9134.73491640	9617.49919653	11223.30207667	11061.02084299	12743.78957185	13276.60642652	13173.51476206	170.78462824	-79.55336653	-173.08154455
35.80000000	9133.87841639	9617.91486667	11224.99380189	11088.89109604	12739.57590193	13275.29711220	13112.45355677	167.79227716	-78.68052750	-166.68217328
35.81000000	9135.80938189	9621.57783586	11226.72813587	11120.94346388	12736.56654775	13277.60999104	13055.23807962	164.78595617	-77.68002366	-155.08510482
35.82000000	9139.66069241	9627.72822822	11228.42654364	11154.74948553	12734.58711661	13281.58974957	13002.88865832	161.83258685	-76.60083165	-139.80975043
